<?xml version="1.0" encoding="iso-8859-1"?>
<!-- Uploaded to: SVG Repo, www.svgrepo.com, Generator: SVG Repo Mixer Tools -->
<svg fill="#000000" height="800px" width="800px" version="1.1" id="Capa_1" xmlns="http://www.w3.org/2000/svg" xmlns:xlink="http://www.w3.org/1999/xlink" 
	 viewBox="0 0 490 490" xml:space="preserve">
<g id="line_13_">
	<path d="M474.688,22.969H15.313C6.891,22.969,0,29.859,0,38.281v327.948c0,8.422,6.891,15.313,15.313,15.313h214.375v54.865
		H126.328v30.625h237.344v-30.625H260.313v-54.865h214.375c8.422,0,15.313-6.891,15.313-15.313V38.281
		C490,29.859,483.109,22.969,474.688,22.969z M459.375,350.917H30.625V53.594h428.75V350.917z"/>
	<ellipse cx="212.354" cy="281" rx="25.051" ry="24.745"/>
	<ellipse cx="296.756" cy="281" rx="25.051" ry="24.745"/>
	<polygon points="182.877,148.562 161.838,148.562 187.792,246.102 321.654,246.102 347.609,148.562 198.741,148.562 185.45,98.674 
		142.391,98.674 142.391,113.986 173.674,113.986 	"/>
</g>
</svg>